<svg width="32" height="32" viewBox="0 0 32 32" fill="none" xmlns="http://www.w3.org/2000/svg">
<rect width="32" height="32" rx="16" transform="matrix(-1 0 0 1 32 0)" fill="black"/>
<circle cx="14.3158" cy="14.3158" r="13.7432" transform="matrix(-1 0 0 1 30.3164 1.68457)" stroke="white" stroke-width="1.14526"/>
<path d="M25.7254 12.2046C24.8827 10.8182 23.6102 9.74503 22.1014 9.14846C20.5926 8.55189 18.9303 8.46456 17.3673 8.89977C15.8043 9.33497 14.4263 10.2689 13.443 11.5594C12.4597 12.8498 11.9249 14.4262 11.92 16.0487C11.9151 17.6711 12.4403 19.2507 13.4159 20.5471C14.3914 21.8435 15.7637 22.7857 17.324 23.2304C18.8843 23.675 20.5472 23.5977 22.0595 23.0103C23.5719 22.4228 24.8509 21.3574 25.7019 19.9761L23.2333 18.4551C22.7138 19.2984 21.9329 19.9488 21.0097 20.3074C20.0864 20.6661 19.0712 20.7133 18.1187 20.4418C17.1661 20.1703 16.3283 19.5951 15.7328 18.8037C15.1372 18.0122 14.8165 17.0479 14.8195 16.0574C14.8225 15.0669 15.149 14.1046 15.7493 13.3167C16.3497 12.5289 17.1909 11.9588 18.1451 11.6931C19.0993 11.4274 20.1141 11.4807 21.0352 11.8449C21.9563 12.2091 22.7332 12.8642 23.2477 13.7106L25.7254 12.2046Z" fill="white"/>
<path d="M6.19422 19.8466C7.03651 21.2421 8.31354 22.3226 9.82926 22.9222C11.345 23.5217 13.0156 23.6073 14.5846 23.1656C16.1536 22.7239 17.5343 21.7795 18.5147 20.4773C19.4951 19.1751 20.021 17.5871 20.0116 15.9571C20.0022 14.3271 19.4581 12.7453 18.4629 11.4544C17.4676 10.1636 16.0761 9.23506 14.5021 8.81145C12.9281 8.38784 11.2586 8.49255 9.7499 9.10949C8.24117 9.72644 6.97663 10.8215 6.15043 12.2266L8.36806 13.5306C8.90874 12.6111 9.73627 11.8944 10.7236 11.4907C11.711 11.0869 12.8035 11.0184 13.8336 11.2956C14.8636 11.5729 15.7742 12.1805 16.4255 13.0253C17.0769 13.87 17.4329 14.9052 17.4391 15.9719C17.4452 17.0386 17.101 18.0778 16.4595 18.93C15.8179 19.7822 14.9143 20.4002 13.8875 20.6893C12.8607 20.9783 11.7675 20.9223 10.7756 20.53C9.78364 20.1376 8.94792 19.4305 8.39671 18.5173L6.19422 19.8466Z" fill="white"/>
</svg>
