<svg width="31" height="32" viewBox="0 0 31 32" fill="none" xmlns="http://www.w3.org/2000/svg">
<g clip-path="url(#clip0_195_113)">
<path d="M25.7076 13.3333C25.7076 20.1669 20.1679 25.7066 13.3343 25.7066C6.50067 25.7066 0.960938 20.1669 0.960938 13.3333C0.960938 6.4997 6.50067 0.959961 13.3343 0.959961C20.1679 0.959961 25.7076 6.4997 25.7076 13.3333Z" stroke="black" stroke-width="1.8"/>
<path d="M5.33398 11.7333C5.33398 8.19863 8.19936 5.33325 11.734 5.33325" stroke="black" stroke-width="1.36" stroke-linecap="round" stroke-linejoin="round"/>
<path d="M30.0071 27.432L23.9732 21.398C23.3483 20.7731 22.3353 20.7731 21.7104 21.398C21.0856 22.0228 21.0856 23.0359 21.7104 23.6607L27.7444 29.6947C28.3692 30.3195 29.3823 30.3195 30.0071 29.6947C30.632 29.0699 30.632 28.0568 30.0071 27.432Z" fill="black"/>
</g>
<defs>
<clipPath id="clip0_195_113">
<rect width="30.9333" height="32" fill="white"/>
</clipPath>
</defs>
</svg>
