<svg width="32" height="32" viewBox="0 0 32 32" fill="none" xmlns="http://www.w3.org/2000/svg">
<g clip-path="url(#clip0_195_117)">
<path d="M21.6771 6.70965C21.6771 9.8452 19.1353 12.3871 15.9997 12.3871C12.8641 12.3871 10.3223 9.8452 10.3223 6.70965C10.3223 3.57409 12.8641 1.03223 15.9997 1.03223C19.1353 1.03223 21.6771 3.57409 21.6771 6.70965Z" stroke="black" stroke-width="1.8"/>
<path d="M30.3414 20.2903C28.3771 26.5639 22.6844 31.0709 16.0003 31.0709C9.31625 31.0709 3.62356 26.5639 1.6593 20.2903C1.34213 19.2774 1.61711 18.3439 2.26587 17.6311C2.92948 16.902 3.98622 16.4128 5.16161 16.4128H26.839C28.0145 16.4128 29.0712 16.902 29.7347 17.6311C30.3835 18.3439 30.6585 19.2774 30.3414 20.2903Z" stroke="black" stroke-width="1.8"/>
</g>
<defs>
<clipPath id="clip0_195_117">
<rect width="32" height="32" fill="white"/>
</clipPath>
</defs>
</svg>
