<svg width="192" height="36" viewBox="0 0 192 36" fill="none" xmlns="http://www.w3.org/2000/svg">
<path d="M17.8 35.705C13.1313 35.705 9.152 34.1227 5.862 30.958C2.60333 27.7933 0.974 23.5947 0.974 18.362C0.974 13.1607 2.63467 8.962 5.956 5.766C9.27733 2.57 13.2097 0.971998 17.753 0.971998C21.7637 0.971998 25.0537 1.99033 27.623 4.027C30.2237 6.06366 31.9313 8.64867 32.746 11.782L27.435 13.568C26.9023 11.406 25.8213 9.65133 24.192 8.304C22.5627 6.95667 20.4163 6.283 17.753 6.283C14.7763 6.283 12.1913 7.34833 9.998 9.479C7.836 11.5783 6.755 14.5393 6.755 18.362C6.755 22.0907 7.836 25.0203 9.998 27.151C12.16 29.2503 14.7607 30.3 17.8 30.3C20.4007 30.3 22.547 29.595 24.239 28.185C25.931 26.775 27.0903 25.036 27.717 22.968L32.887 24.66C32.0723 27.762 30.349 30.3783 27.717 32.509C25.1163 34.6397 21.8107 35.705 17.8 35.705ZM65.5902 35H59.9032V20.759H44.2522V35H38.6122V1.677H44.2522V15.448H59.9032V1.677H65.5902V35ZM96.3818 35L93.2328 26.634H79.1328L76.0308 35H70.0618L83.0338 1.677H89.5668L102.539 35H96.3818ZM86.1828 7.787L81.1068 21.417H91.2588L86.1828 7.787ZM134.966 35H129.091L112.641 9.761V35H107.001V1.677H114.192L129.326 25.318V1.677H134.966V35ZM163.525 35H142.939V1.677H163.525V6.941H148.579V15.777H162.115V20.9H148.579V29.736H163.525V35ZM191.21 35H170.295V1.677H175.935V29.642H191.21V35Z" fill="black"/>
</svg>
